# xmcd
#
# Track frame offsets:
#        150
#        21071
#        44548
#        65208
#        87662
#        109215
#        134072
#        164316
#
# Disc length: 2722 seconds
#
# Revision: 4
# Processed by: cddbd v1.5.1PL2 Copyright (c) Steve Scherf et al.
# Submitted via: ExactAudioCopy v0.95b2
#
DISCID=770aa008
DTITLE=the protagonist - Songs of Experience
DYEAR=2005
DGENRE=Darkwave
TTITLE0=The Sick Rose
TTITLE1=Hesperia
TTITLE2=Spirits of the Dead
TTITLE3=Down There
TTITLE4=The Hunt
TTITLE5=Strife
TTITLE6=La Fine' de la Journe'e
TTITLE7=Sermon
EXTD=
EXTT0=
EXTT1=
EXTT2=
EXTT3=
EXTT4=
EXTT5=
EXTT6=
EXTT7=
PLAYORDER=
